<svg xmlns="http://www.w3.org/2000/svg" width="512" height="512" viewBox="0 0 512 512">
  <rect width="512" height="512" rx="76" fill="#10392E"/>
  <circle cx="256" cy="256" r="184" fill="none" stroke="#E7C98B" stroke-width="10"/>
  <path fill="#E7C98B" d="M353.692,266.307C361.209,271.475 367.317,277.964 372.015,285.775C376.713,293.585 379.062,302.776 379.062,313.347C379.062,326.032 376.39,336.749 371.046,345.5C365.702,354.25 358.038,361.15 348.054,366.201C337.483,371.604 325.298,375.421 311.497,377.653C297.696,379.884 281.458,381 262.783,381L132.938,381L132.938,367.258C136.579,366.906 141.16,366.377 146.68,365.672C152.2,364.968 156.076,364.145 158.308,363.206C162.654,361.444 165.619,359.124 167.205,356.247C168.791,353.369 169.584,349.64 169.584,345.059L169.584,168.879C169.584,164.651 168.938,161.127 167.646,158.308C166.354,155.489 163.241,153.023 158.308,150.908C154.667,149.382 150.439,148.119 145.623,147.121C140.807,146.122 136.579,145.329 132.938,144.742L132.938,131L268.773,131C302.952,131 327.617,135.698 342.769,145.094C357.92,154.491 365.496,168.35 365.496,186.673C365.496,195.13 363.793,202.559 360.387,208.96C356.981,215.361 352.106,220.911 345.764,225.609C340.009,229.955 333.138,233.713 325.151,236.884C317.164,240.056 308.59,242.698 299.429,244.813L299.429,248.16C308.59,249.1 318.104,251.126 327.97,254.238C337.836,257.351 346.41,261.374 353.692,266.307ZM296.962,191.078C296.962,177.218 293.057,166.412 285.246,158.66C277.435,150.908 265.719,147.032 250.098,147.032C247.866,147.032 244.959,147.121 241.377,147.297C237.795,147.473 234.712,147.62 232.128,147.737L232.128,240.408L241.289,240.408C260.316,240.408 274.352,235.974 283.396,227.106C292.44,218.239 296.962,206.229 296.962,191.078ZM309.295,311.144C309.295,293.734 304.127,280.381 293.791,271.087C283.455,261.792 268.597,257.145 249.217,257.145C246.985,257.145 244.02,257.233 240.32,257.409C236.62,257.586 233.889,257.732 232.128,257.85L232.128,349.439C233.185,353.792 236.473,357.468 241.994,360.468C247.514,363.468 254.209,364.968 262.078,364.968C276.055,364.968 287.419,360.262 296.169,350.85C304.919,341.438 309.295,328.203 309.295,311.144Z"/>
</svg>